<svg width="113" height="36" viewBox="0 0 113 36" fill="none" xmlns="http://www.w3.org/2000/svg">
<path d="M8.41146 36C6.67388 36 5.06794 35.6463 3.59363 34.9388C2.14565 34.2313 0.947771 33.2109 0 31.8775L2.84331 28.2449C4.34395 30.4218 6.14735 31.5102 8.2535 31.5102C11.1758 31.5102 12.6369 29.7551 12.6369 26.2449V7.38775H2.76433V2.93877H17.7312V25.9592C17.7312 29.3061 16.9414 31.8095 15.3618 33.4694C13.7822 35.1565 11.4654 36 8.41146 36Z" fill="white"/>
<path d="M43.8902 9.71428V31.5102H39.1909V28.6939C38.3747 29.7279 37.3611 30.5034 36.1501 31.0204C34.9654 31.5374 33.649 31.7959 32.2011 31.7959C30.1476 31.7959 28.3047 31.3333 26.6724 30.4082C25.0665 29.483 23.8028 28.1769 22.8813 26.4898C21.9862 24.8027 21.5386 22.8435 21.5386 20.6122C21.5386 18.381 21.9862 16.4354 22.8813 14.7755C23.8028 13.0884 25.0665 11.7823 26.6724 10.8571C28.3047 9.93197 30.1476 9.46939 32.2011 9.46939C33.5701 9.46939 34.8206 9.71428 35.9526 10.2041C37.111 10.6939 38.1115 11.415 38.9539 12.3673V9.71428H43.8902ZM32.7539 27.4286C34.5705 27.4286 36.0711 26.8027 37.2558 25.551C38.4405 24.2993 39.0329 22.6531 39.0329 20.6122C39.0329 18.5714 38.4405 16.9252 37.2558 15.6735C36.0711 14.4218 34.5705 13.7959 32.7539 13.7959C30.9374 13.7959 29.4367 14.4218 28.252 15.6735C27.0936 16.9252 26.5144 18.5714 26.5144 20.6122C26.5144 22.6531 27.0936 24.2993 28.252 25.551C29.4367 26.8027 30.9374 27.4286 32.7539 27.4286Z" fill="white"/>
<path d="M61.0112 30.3265C60.432 30.8163 59.7212 31.1837 58.8787 31.4286C58.0626 31.6735 57.1938 31.7959 56.2723 31.7959C53.9556 31.7959 52.1653 31.1701 50.9016 29.9184C49.6379 28.6667 49.0061 26.8435 49.0061 24.449V4.89796H53.9424V9.87755H59.5895V13.9592H53.9424V24.3265C53.9424 25.3878 54.1925 26.2041 54.6927 26.7755C55.2193 27.3197 55.9432 27.5918 56.8647 27.5918C57.9704 27.5918 58.8919 27.2925 59.629 26.6939L61.0112 30.3265Z" fill="white"/>
<path d="M63.9066 9.71428H68.8429V31.5102H63.9066V9.71428ZM66.3945 6.12245C65.4994 6.12245 64.7491 5.83673 64.1436 5.26531C63.5381 4.66667 63.2353 3.93197 63.2353 3.06122C63.2353 2.19048 63.5381 1.46939 64.1436 0.897957C64.7491 0.299319 65.4994 0 66.3945 0C67.2896 0 68.04 0.285714 68.6455 0.857141C69.251 1.40136 69.5538 2.09524 69.5538 2.93877C69.5538 3.83673 69.251 4.59864 68.6455 5.22449C68.0663 5.82313 67.316 6.12245 66.3945 6.12245Z" fill="white"/>
<path d="M86.1027 9.46939C88.7617 9.46939 90.8942 10.2721 92.5002 11.8775C94.1061 13.483 94.9091 15.8639 94.9091 19.0204V31.5102H89.9728V19.6735C89.9728 17.7687 89.5384 16.3401 88.6696 15.3878C87.8008 14.4082 86.5634 13.9184 84.9575 13.9184C83.1409 13.9184 81.7061 14.4898 80.653 15.6327C79.6 16.7483 79.0734 18.3673 79.0734 20.4898V31.5102H74.1371V9.71428H78.8365V12.5306C79.6526 11.5238 80.6794 10.7619 81.9167 10.2449C83.1541 9.72789 84.5494 9.46939 86.1027 9.46939Z" fill="white"/>
<circle cx="106.364" cy="24.5455" r="6.54545" fill="#3AAFC9"/>
</svg>


