<svg width="24" height="24" viewBox="0 0 24 24" fill="none" xmlns="http://www.w3.org/2000/svg">
<path d="M4.98292 7.19701C6.19132 7.19701 7.17092 6.21741 7.17092 5.00901C7.17092 3.80062 6.19132 2.82101 4.98292 2.82101C3.77452 2.82101 2.79492 3.80062 2.79492 5.00901C2.79492 6.21741 3.77452 7.19701 4.98292 7.19701Z" fill="white"/>
<path d="M9.23722 8.85499V20.994H13.0062V14.991C13.0062 13.407 13.3042 11.873 15.2682 11.873C17.2052 11.873 17.2292 13.684 17.2292 15.091V20.995H21.0002V14.338C21.0002 11.068 20.2962 8.55499 16.4742 8.55499C14.6392 8.55499 13.4092 9.56199 12.9062 10.515H12.8552V8.85499H9.23722ZM3.09521 8.85499H6.87021V20.994H3.09521V8.85499Z" fill="white"/>
</svg>
